<svg xmlns="http://www.w3.org/2000/svg" viewBox="0 0 32 32" width="32" height="32">
  <defs>
    <linearGradient id="bg" x1="0" y1="0" x2="0" y2="1">
      <stop offset="0%" stop-color="#ff2e63"/>
      <stop offset="100%" stop-color="#a80c31"/>
    </linearGradient>
    <linearGradient id="coins" x1="0" y1="0" x2="0" y2="1">
      <stop offset="0%" stop-color="#ffd166"/>
      <stop offset="100%" stop-color="#ffb800"/>
    </linearGradient>
    <clipPath id="jarClip">
      <path d="M11.6 9.4V6h8.8v3.4c0 1.2.5 2.3 1.3 3.1l1 1c.9.9 1.4 2.1 1.4 3.4v6.6c0 1.4-1.1 2.5-2.5 2.5H10.4A2.5 2.5 0 0 1 7.9 23.5v-6.6c0-1.3.5-2.5 1.4-3.4l1-1a4.4 4.4 0 0 0 1.3-3.1Z"/>
    </clipPath>
  </defs>

  <rect width="32" height="32" rx="8" fill="url(#bg)"/>

  <!-- Lid -->
  <rect x="10.4" y="3" width="11.2" height="3.4" rx="1.2" fill="#fff0f4"/>

  <!-- Jar body -->
  <path d="M11.6 9.4V6h8.8v3.4c0 1.2.5 2.3 1.3 3.1l1 1c.9.9 1.4 2.1 1.4 3.4v6.6c0 1.4-1.1 2.5-2.5 2.5H10.4A2.5 2.5 0 0 1 7.9 23.5v-6.6c0-1.3.5-2.5 1.4-3.4l1-1a4.4 4.4 0 0 0 1.3-3.1Z"
        fill="#fff0f4" fill-opacity="0.22" stroke="#fff0f4" stroke-width="1.6" stroke-linejoin="round"/>

  <!-- Coins filling the jar, clipped to the silhouette -->
  <g clip-path="url(#jarClip)">
    <rect x="6" y="17.6" width="20" height="10" fill="url(#coins)"/>
    <circle cx="12.6" cy="19" r="1.9" fill="#fff0f4" fill-opacity="0.5"/>
    <circle cx="19.2" cy="20.4" r="1.5" fill="#fff0f4" fill-opacity="0.35"/>
  </g>

  <!-- Glass highlight -->
  <path d="M11.4 22.6v-5.2c0-.9.3-1.7.9-2.4" stroke="#fff0f4" stroke-opacity="0.55" stroke-width="1.4" stroke-linecap="round" fill="none"/>
</svg>
